<svg width="360" height="89" viewBox="0 0 360 89" fill="none" xmlns="http://www.w3.org/2000/svg">
<rect width="89" height="89" rx="14.6502" fill="#9810FA"/>
<path d="M42.5372 67.4804V46.7908C39.7699 46.7908 37.1107 46.2612 34.5597 45.2018C32.0086 44.1425 29.7602 42.64 27.8145 40.6942C25.8687 38.7485 24.377 36.5001 23.3393 33.949C22.3016 31.398 21.7827 28.7388 21.7827 25.9715V20.7829H26.9713C29.6954 20.7829 32.3329 21.3126 34.884 22.3719C37.435 23.4313 39.6834 24.9338 41.6292 26.8795C42.9696 28.2199 44.0829 29.69 44.9693 31.2899C45.8557 32.8897 46.5367 34.5976 47.0124 36.4136C47.2285 36.111 47.4664 35.8191 47.7258 35.538C47.9852 35.257 48.2663 34.9651 48.5689 34.6625C50.5147 32.7167 52.7631 31.2142 55.3141 30.1549C57.8652 29.0955 60.5244 28.5658 63.2916 28.5658H68.4802V33.7545C68.4802 36.5217 67.9506 39.1809 66.8912 41.732C65.8319 44.283 64.3293 46.5314 62.3836 48.4771C60.4379 50.4229 58.2003 51.9146 55.6709 52.9523C53.1414 53.9901 50.493 54.5089 47.7258 54.5089V67.4804H42.5372ZM42.5372 41.5374C42.5372 39.4619 42.1372 37.4838 41.3373 35.6029C40.5374 33.722 39.4024 32.0465 37.9323 30.5764C36.4622 29.1063 34.7867 27.9713 32.9058 27.1714C31.0249 26.3715 29.0468 25.9715 26.9713 25.9715C26.9713 28.047 27.3605 30.0359 28.1388 31.9384C28.9171 33.8409 30.0413 35.5272 31.5114 36.9973C32.9815 38.4674 34.6678 39.5916 36.5703 40.3699C38.4728 41.1482 40.4617 41.5374 42.5372 41.5374ZM47.7258 49.3203C49.8012 49.3203 51.7794 48.9312 53.6603 48.1529C55.5411 47.3746 57.2166 46.2504 58.6867 44.7803C60.1568 43.3102 61.2919 41.6239 62.0918 39.7214C62.8917 37.8189 63.2916 35.8299 63.2916 33.7545C61.2162 33.7545 59.2272 34.1544 57.3247 34.9543C55.4222 35.7542 53.7359 36.8892 52.2658 38.3594C50.7957 39.8295 49.6715 41.5049 48.8932 43.3858C48.1149 45.2667 47.7258 47.2449 47.7258 49.3203Z" fill="white"/>
<path d="M112.91 21.72C112.91 22.94 112.63 24.06 112.07 25.08C111.51 26.08 110.65 26.89 109.49 27.51C108.33 28.13 106.89 28.44 105.17 28.44H101.99V36H96.86V14.94H105.17C106.85 14.94 108.27 15.23 109.43 15.81C110.59 16.39 111.46 17.19 112.04 18.21C112.62 19.23 112.91 20.4 112.91 21.72ZM104.78 24.36C105.76 24.36 106.49 24.13 106.97 23.67C107.45 23.21 107.69 22.56 107.69 21.72C107.69 20.88 107.45 20.23 106.97 19.77C106.49 19.31 105.76 19.08 104.78 19.08H101.99V24.36H104.78ZM120.711 13.8V36H115.581V13.8H120.711ZM123.408 27.6C123.408 25.88 123.728 24.37 124.368 23.07C125.028 21.77 125.918 20.77 127.038 20.07C128.158 19.37 129.408 19.02 130.788 19.02C131.968 19.02 132.998 19.26 133.878 19.74C134.778 20.22 135.468 20.85 135.948 21.63V19.26H141.078V36H135.948V33.63C135.448 34.41 134.748 35.04 133.848 35.52C132.968 36 131.938 36.24 130.758 36.24C129.398 36.24 128.158 35.89 127.038 35.19C125.918 34.47 125.028 33.46 124.368 32.16C123.728 30.84 123.408 29.32 123.408 27.6ZM135.948 27.63C135.948 26.35 135.588 25.34 134.868 24.6C134.168 23.86 133.308 23.49 132.288 23.49C131.268 23.49 130.398 23.86 129.678 24.6C128.978 25.32 128.628 26.32 128.628 27.6C128.628 28.88 128.978 29.9 129.678 30.66C130.398 31.4 131.268 31.77 132.288 31.77C133.308 31.77 134.168 31.4 134.868 30.66C135.588 29.92 135.948 28.91 135.948 27.63ZM154.99 19.08C156.95 19.08 158.51 19.72 159.67 21C160.85 22.26 161.44 24 161.44 26.22V36H156.34V26.91C156.34 25.79 156.05 24.92 155.47 24.3C154.89 23.68 154.11 23.37 153.13 23.37C152.15 23.37 151.37 23.68 150.79 24.3C150.21 24.92 149.92 25.79 149.92 26.91V36H144.79V19.26H149.92V21.48C150.44 20.74 151.14 20.16 152.02 19.74C152.9 19.3 153.89 19.08 154.99 19.08ZM174.335 31.65V36H171.725C169.865 36 168.415 35.55 167.375 34.65C166.335 33.73 165.815 32.24 165.815 30.18V23.52H163.775V19.26H165.815V15.18H170.945V19.26H174.305V23.52H170.945V30.24C170.945 30.74 171.065 31.1 171.305 31.32C171.545 31.54 171.945 31.65 172.505 31.65H174.335ZM176.322 25.44C176.322 23.36 176.772 21.51 177.672 19.89C178.572 18.25 179.822 16.98 181.422 16.08C183.042 15.16 184.872 14.7 186.912 14.7C189.412 14.7 191.552 15.36 193.332 16.68C195.112 18 196.302 19.8 196.902 22.08H191.262C190.842 21.2 190.242 20.53 189.462 20.07C188.702 19.61 187.832 19.38 186.852 19.38C185.272 19.38 183.992 19.93 183.012 21.03C182.032 22.13 181.542 23.6 181.542 25.44C181.542 27.28 182.032 28.75 183.012 29.85C183.992 30.95 185.272 31.5 186.852 31.5C187.832 31.5 188.702 31.27 189.462 30.81C190.242 30.35 190.842 29.68 191.262 28.8H196.902C196.302 31.08 195.112 32.88 193.332 34.2C191.552 35.5 189.412 36.15 186.912 36.15C184.872 36.15 183.042 35.7 181.422 34.8C179.822 33.88 178.572 32.61 177.672 30.99C176.772 29.37 176.322 27.52 176.322 25.44ZM199.024 27.6C199.024 25.88 199.344 24.37 199.984 23.07C200.644 21.77 201.534 20.77 202.654 20.07C203.774 19.37 205.024 19.02 206.404 19.02C207.584 19.02 208.614 19.26 209.494 19.74C210.394 20.22 211.084 20.85 211.564 21.63V19.26H216.694V36H211.564V33.63C211.064 34.41 210.364 35.04 209.464 35.52C208.584 36 207.554 36.24 206.374 36.24C205.014 36.24 203.774 35.89 202.654 35.19C201.534 34.47 200.644 33.46 199.984 32.16C199.344 30.84 199.024 29.32 199.024 27.6ZM211.564 27.63C211.564 26.35 211.204 25.34 210.484 24.6C209.784 23.86 208.924 23.49 207.904 23.49C206.884 23.49 206.014 23.86 205.294 24.6C204.594 25.32 204.244 26.32 204.244 27.6C204.244 28.88 204.594 29.9 205.294 30.66C206.014 31.4 206.884 31.77 207.904 31.77C208.924 31.77 209.784 31.4 210.484 30.66C211.204 29.92 211.564 28.91 211.564 27.63ZM225.535 22.05C226.135 21.13 226.885 20.41 227.785 19.89C228.685 19.35 229.685 19.08 230.785 19.08V24.51H229.375C228.095 24.51 227.135 24.79 226.495 25.35C225.855 25.89 225.535 26.85 225.535 28.23V36H220.405V19.26H225.535V22.05ZM249.017 27.36C249.017 27.84 248.987 28.34 248.927 28.86H237.317C237.397 29.9 237.727 30.7 238.307 31.26C238.907 31.8 239.637 32.07 240.497 32.07C241.777 32.07 242.667 31.53 243.167 30.45H248.627C248.347 31.55 247.837 32.54 247.097 33.42C246.377 34.3 245.467 34.99 244.367 35.49C243.267 35.99 242.037 36.24 240.677 36.24C239.037 36.24 237.577 35.89 236.297 35.19C235.017 34.49 234.017 33.49 233.297 32.19C232.577 30.89 232.217 29.37 232.217 27.63C232.217 25.89 232.567 24.37 233.267 23.07C233.987 21.77 234.987 20.77 236.267 20.07C237.547 19.37 239.017 19.02 240.677 19.02C242.297 19.02 243.737 19.36 244.997 20.04C246.257 20.72 247.237 21.69 247.937 22.95C248.657 24.21 249.017 25.68 249.017 27.36ZM243.767 26.01C243.767 25.13 243.467 24.43 242.867 23.91C242.267 23.39 241.517 23.13 240.617 23.13C239.757 23.13 239.027 23.38 238.427 23.88C237.847 24.38 237.487 25.09 237.347 26.01H243.767ZM271.191 32.28H263.331L262.071 36H256.701L264.321 14.94H270.261L277.881 36H272.451L271.191 32.28ZM269.871 28.32L267.261 20.61L264.681 28.32H269.871ZM279.18 27.6C279.18 25.88 279.5 24.37 280.14 23.07C280.8 21.77 281.69 20.77 282.81 20.07C283.93 19.37 285.18 19.02 286.56 19.02C287.66 19.02 288.66 19.25 289.56 19.71C290.48 20.17 291.2 20.79 291.72 21.57V13.8H296.85V36H291.72V33.6C291.24 34.4 290.55 35.04 289.65 35.52C288.77 36 287.74 36.24 286.56 36.24C285.18 36.24 283.93 35.89 282.81 35.19C281.69 34.47 280.8 33.46 280.14 32.16C279.5 30.84 279.18 29.32 279.18 27.6ZM291.72 27.63C291.72 26.35 291.36 25.34 290.64 24.6C289.94 23.86 289.08 23.49 288.06 23.49C287.04 23.49 286.17 23.86 285.45 24.6C284.75 25.32 284.4 26.32 284.4 27.6C284.4 28.88 284.75 29.9 285.45 30.66C286.17 31.4 287.04 31.77 288.06 31.77C289.08 31.77 289.94 31.4 290.64 30.66C291.36 29.92 291.72 28.91 291.72 27.63ZM321.921 19.08C324.001 19.08 325.651 19.71 326.871 20.97C328.111 22.23 328.731 23.98 328.731 26.22V36H323.631V26.91C323.631 25.83 323.341 25 322.761 24.42C322.201 23.82 321.421 23.52 320.421 23.52C319.421 23.52 318.631 23.82 318.051 24.42C317.491 25 317.211 25.83 317.211 26.91V36H312.111V26.91C312.111 25.83 311.821 25 311.241 24.42C310.681 23.82 309.901 23.52 308.901 23.52C307.901 23.52 307.111 23.82 306.531 24.42C305.971 25 305.691 25.83 305.691 26.91V36H300.561V19.26H305.691V21.36C306.211 20.66 306.891 20.11 307.731 19.71C308.571 19.29 309.521 19.08 310.581 19.08C311.841 19.08 312.961 19.35 313.941 19.89C314.941 20.43 315.721 21.2 316.281 22.2C316.861 21.28 317.651 20.53 318.651 19.95C319.651 19.37 320.741 19.08 321.921 19.08ZM334.899 17.52C333.999 17.52 333.259 17.26 332.679 16.74C332.119 16.2 331.839 15.54 331.839 14.76C331.839 13.96 332.119 13.3 332.679 12.78C333.259 12.24 333.999 11.97 334.899 11.97C335.779 11.97 336.499 12.24 337.059 12.78C337.639 13.3 337.929 13.96 337.929 14.76C337.929 15.54 337.639 16.2 337.059 16.74C336.499 17.26 335.779 17.52 334.899 17.52ZM337.449 19.26V36H332.319V19.26H337.449ZM351.367 19.08C353.327 19.08 354.887 19.72 356.047 21C357.227 22.26 357.817 24 357.817 26.22V36H352.717V26.91C352.717 25.79 352.427 24.92 351.847 24.3C351.267 23.68 350.487 23.37 349.507 23.37C348.527 23.37 347.747 23.68 347.167 24.3C346.587 24.92 346.297 25.79 346.297 26.91V36H341.167V19.26H346.297V21.48C346.817 20.74 347.517 20.16 348.397 19.74C349.277 19.3 350.267 19.08 351.367 19.08Z" fill="#2E2E2E"/>
<path opacity="0.5" d="M106.76 50.62V61H105.395V53.26L101.945 61H100.985L97.52 53.245V61H96.155V50.62H97.625L101.465 59.2L105.305 50.62H106.76ZM108.565 56.86C108.565 56.02 108.735 55.285 109.075 54.655C109.415 54.015 109.88 53.52 110.47 53.17C111.07 52.82 111.735 52.645 112.465 52.645C113.185 52.645 113.81 52.8 114.34 53.11C114.87 53.42 115.265 53.81 115.525 54.28V52.78H116.905V61H115.525V59.47C115.255 59.95 114.85 60.35 114.31 60.67C113.78 60.98 113.16 61.135 112.45 61.135C111.72 61.135 111.06 60.955 110.47 60.595C109.88 60.235 109.415 59.73 109.075 59.08C108.735 58.43 108.565 57.69 108.565 56.86ZM115.525 56.875C115.525 56.255 115.4 55.715 115.15 55.255C114.9 54.795 114.56 54.445 114.13 54.205C113.71 53.955 113.245 53.83 112.735 53.83C112.225 53.83 111.76 53.95 111.34 54.19C110.92 54.43 110.585 54.78 110.335 55.24C110.085 55.7 109.96 56.24 109.96 56.86C109.96 57.49 110.085 58.04 110.335 58.51C110.585 58.97 110.92 59.325 111.34 59.575C111.76 59.815 112.225 59.935 112.735 59.935C113.245 59.935 113.71 59.815 114.13 59.575C114.56 59.325 114.9 58.97 115.15 58.51C115.4 58.04 115.525 57.495 115.525 56.875ZM123.217 52.63C124.217 52.63 125.027 52.935 125.647 53.545C126.267 54.145 126.577 55.015 126.577 56.155V61H125.227V56.35C125.227 55.53 125.022 54.905 124.612 54.475C124.202 54.035 123.642 53.815 122.932 53.815C122.212 53.815 121.637 54.04 121.207 54.49C120.787 54.94 120.577 55.595 120.577 56.455V61H119.212V52.78H120.577V53.95C120.847 53.53 121.212 53.205 121.672 52.975C122.142 52.745 122.657 52.63 123.217 52.63ZM128.296 56.86C128.296 56.02 128.466 55.285 128.806 54.655C129.146 54.015 129.611 53.52 130.201 53.17C130.801 52.82 131.466 52.645 132.196 52.645C132.916 52.645 133.541 52.8 134.071 53.11C134.601 53.42 134.996 53.81 135.256 54.28V52.78H136.636V61H135.256V59.47C134.986 59.95 134.581 60.35 134.041 60.67C133.511 60.98 132.891 61.135 132.181 61.135C131.451 61.135 130.791 60.955 130.201 60.595C129.611 60.235 129.146 59.73 128.806 59.08C128.466 58.43 128.296 57.69 128.296 56.86ZM135.256 56.875C135.256 56.255 135.131 55.715 134.881 55.255C134.631 54.795 134.291 54.445 133.861 54.205C133.441 53.955 132.976 53.83 132.466 53.83C131.956 53.83 131.491 53.95 131.071 54.19C130.651 54.43 130.316 54.78 130.066 55.24C129.816 55.7 129.691 56.24 129.691 56.86C129.691 57.49 129.816 58.04 130.066 58.51C130.316 58.97 130.651 59.325 131.071 59.575C131.491 59.815 131.956 59.935 132.466 59.935C132.976 59.935 133.441 59.815 133.861 59.575C134.291 59.325 134.631 58.97 134.881 58.51C135.131 58.04 135.256 57.495 135.256 56.875ZM142.333 52.645C143.043 52.645 143.663 52.8 144.193 53.11C144.733 53.42 145.133 53.81 145.393 54.28V52.78H146.773V61.18C146.773 61.93 146.613 62.595 146.293 63.175C145.973 63.765 145.513 64.225 144.913 64.555C144.323 64.885 143.633 65.05 142.843 65.05C141.763 65.05 140.863 64.795 140.143 64.285C139.423 63.775 138.998 63.08 138.868 62.2H140.218C140.368 62.7 140.678 63.1 141.148 63.4C141.618 63.71 142.183 63.865 142.843 63.865C143.593 63.865 144.203 63.63 144.673 63.16C145.153 62.69 145.393 62.03 145.393 61.18V59.455C145.123 59.935 144.723 60.335 144.193 60.655C143.663 60.975 143.043 61.135 142.333 61.135C141.603 61.135 140.938 60.955 140.338 60.595C139.748 60.235 139.283 59.73 138.943 59.08C138.603 58.43 138.433 57.69 138.433 56.86C138.433 56.02 138.603 55.285 138.943 54.655C139.283 54.015 139.748 53.52 140.338 53.17C140.938 52.82 141.603 52.645 142.333 52.645ZM145.393 56.875C145.393 56.255 145.268 55.715 145.018 55.255C144.768 54.795 144.428 54.445 143.998 54.205C143.578 53.955 143.113 53.83 142.603 53.83C142.093 53.83 141.628 53.95 141.208 54.19C140.788 54.43 140.453 54.78 140.203 55.24C139.953 55.7 139.828 56.24 139.828 56.86C139.828 57.49 139.953 58.04 140.203 58.51C140.453 58.97 140.788 59.325 141.208 59.575C141.628 59.815 142.093 59.935 142.603 59.935C143.113 59.935 143.578 59.815 143.998 59.575C144.428 59.325 144.768 58.97 145.018 58.51C145.268 58.04 145.393 57.495 145.393 56.875ZM156.58 56.575C156.58 56.835 156.565 57.11 156.535 57.4H149.965C150.015 58.21 150.29 58.845 150.79 59.305C151.3 59.755 151.915 59.98 152.635 59.98C153.225 59.98 153.715 59.845 154.105 59.575C154.505 59.295 154.785 58.925 154.945 58.465H156.415C156.195 59.255 155.755 59.9 155.095 60.4C154.435 60.89 153.615 61.135 152.635 61.135C151.855 61.135 151.155 60.96 150.535 60.61C149.925 60.26 149.445 59.765 149.095 59.125C148.745 58.475 148.57 57.725 148.57 56.875C148.57 56.025 148.74 55.28 149.08 54.64C149.42 54 149.895 53.51 150.505 53.17C151.125 52.82 151.835 52.645 152.635 52.645C153.415 52.645 154.105 52.815 154.705 53.155C155.305 53.495 155.765 53.965 156.085 54.565C156.415 55.155 156.58 55.825 156.58 56.575ZM155.17 56.29C155.17 55.77 155.055 55.325 154.825 54.955C154.595 54.575 154.28 54.29 153.88 54.1C153.49 53.9 153.055 53.8 152.575 53.8C151.885 53.8 151.295 54.02 150.805 54.46C150.325 54.9 150.05 55.51 149.98 56.29H155.17ZM168.267 52.63C168.907 52.63 169.477 52.765 169.977 53.035C170.477 53.295 170.872 53.69 171.162 54.22C171.452 54.75 171.597 55.395 171.597 56.155V61H170.247V56.35C170.247 55.53 170.042 54.905 169.632 54.475C169.232 54.035 168.687 53.815 167.997 53.815C167.287 53.815 166.722 54.045 166.302 54.505C165.882 54.955 165.672 55.61 165.672 56.47V61H164.322V56.35C164.322 55.53 164.117 54.905 163.707 54.475C163.307 54.035 162.762 53.815 162.072 53.815C161.362 53.815 160.797 54.045 160.377 54.505C159.957 54.955 159.747 55.61 159.747 56.47V61H158.382V52.78H159.747V53.965C160.017 53.535 160.377 53.205 160.827 52.975C161.287 52.745 161.792 52.63 162.342 52.63C163.032 52.63 163.642 52.785 164.172 53.095C164.702 53.405 165.097 53.86 165.357 54.46C165.587 53.88 165.967 53.43 166.497 53.11C167.027 52.79 167.617 52.63 168.267 52.63ZM181.336 56.575C181.336 56.835 181.321 57.11 181.291 57.4H174.721C174.771 58.21 175.046 58.845 175.546 59.305C176.056 59.755 176.671 59.98 177.391 59.98C177.981 59.98 178.471 59.845 178.861 59.575C179.261 59.295 179.541 58.925 179.701 58.465H181.171C180.951 59.255 180.511 59.9 179.851 60.4C179.191 60.89 178.371 61.135 177.391 61.135C176.611 61.135 175.911 60.96 175.291 60.61C174.681 60.26 174.201 59.765 173.851 59.125C173.501 58.475 173.326 57.725 173.326 56.875C173.326 56.025 173.496 55.28 173.836 54.64C174.176 54 174.651 53.51 175.261 53.17C175.881 52.82 176.591 52.645 177.391 52.645C178.171 52.645 178.861 52.815 179.461 53.155C180.061 53.495 180.521 53.965 180.841 54.565C181.171 55.155 181.336 55.825 181.336 56.575ZM179.926 56.29C179.926 55.77 179.811 55.325 179.581 54.955C179.351 54.575 179.036 54.29 178.636 54.1C178.246 53.9 177.811 53.8 177.331 53.8C176.641 53.8 176.051 54.02 175.561 54.46C175.081 54.9 174.806 55.51 174.736 56.29H179.926ZM187.142 52.63C188.142 52.63 188.952 52.935 189.572 53.545C190.192 54.145 190.502 55.015 190.502 56.155V61H189.152V56.35C189.152 55.53 188.947 54.905 188.537 54.475C188.127 54.035 187.567 53.815 186.857 53.815C186.137 53.815 185.562 54.04 185.132 54.49C184.712 54.94 184.502 55.595 184.502 56.455V61H183.137V52.78H184.502V53.95C184.772 53.53 185.137 53.205 185.597 52.975C186.067 52.745 186.582 52.63 187.142 52.63ZM194.397 53.905V58.75C194.397 59.15 194.482 59.435 194.652 59.605C194.822 59.765 195.117 59.845 195.537 59.845H196.542V61H195.312C194.552 61 193.982 60.825 193.602 60.475C193.222 60.125 193.032 59.55 193.032 58.75V53.905H191.967V52.78H193.032V50.71H194.397V52.78H196.542V53.905H194.397ZM209.185 53.605C209.185 54.475 208.885 55.2 208.285 55.78C207.695 56.35 206.79 56.635 205.57 56.635H203.56V61H202.195V50.545H205.57C206.75 50.545 207.645 50.83 208.255 51.4C208.875 51.97 209.185 52.705 209.185 53.605ZM205.57 55.51C206.33 55.51 206.89 55.345 207.25 55.015C207.61 54.685 207.79 54.215 207.79 53.605C207.79 52.315 207.05 51.67 205.57 51.67H203.56V55.51H205.57ZM214.467 61.135C213.697 61.135 212.997 60.96 212.367 60.61C211.747 60.26 211.257 59.765 210.897 59.125C210.547 58.475 210.372 57.725 210.372 56.875C210.372 56.035 210.552 55.295 210.912 54.655C211.282 54.005 211.782 53.51 212.412 53.17C213.042 52.82 213.747 52.645 214.527 52.645C215.307 52.645 216.012 52.82 216.642 53.17C217.272 53.51 217.767 54 218.127 54.64C218.497 55.28 218.682 56.025 218.682 56.875C218.682 57.725 218.492 58.475 218.112 59.125C217.742 59.765 217.237 60.26 216.597 60.61C215.957 60.96 215.247 61.135 214.467 61.135ZM214.467 59.935C214.957 59.935 215.417 59.82 215.847 59.59C216.277 59.36 216.622 59.015 216.882 58.555C217.152 58.095 217.287 57.535 217.287 56.875C217.287 56.215 217.157 55.655 216.897 55.195C216.637 54.735 216.297 54.395 215.877 54.175C215.457 53.945 215.002 53.83 214.512 53.83C214.012 53.83 213.552 53.945 213.132 54.175C212.722 54.395 212.392 54.735 212.142 55.195C211.892 55.655 211.767 56.215 211.767 56.875C211.767 57.545 211.887 58.11 212.127 58.57C212.377 59.03 212.707 59.375 213.117 59.605C213.527 59.825 213.977 59.935 214.467 59.935ZM221.841 54.115C222.081 53.645 222.421 53.28 222.861 53.02C223.311 52.76 223.856 52.63 224.496 52.63V54.04H224.136C222.606 54.04 221.841 54.87 221.841 56.53V61H220.476V52.78H221.841V54.115ZM227.737 53.905V58.75C227.737 59.15 227.822 59.435 227.992 59.605C228.162 59.765 228.457 59.845 228.877 59.845H229.882V61H228.652C227.892 61 227.322 60.825 226.942 60.475C226.562 60.125 226.372 59.55 226.372 58.75V53.905H225.307V52.78H226.372V50.71H227.737V52.78H229.882V53.905H227.737ZM231.026 56.86C231.026 56.02 231.196 55.285 231.536 54.655C231.876 54.015 232.341 53.52 232.931 53.17C233.531 52.82 234.196 52.645 234.926 52.645C235.646 52.645 236.271 52.8 236.801 53.11C237.331 53.42 237.726 53.81 237.986 54.28V52.78H239.366V61H237.986V59.47C237.716 59.95 237.311 60.35 236.771 60.67C236.241 60.98 235.621 61.135 234.911 61.135C234.181 61.135 233.521 60.955 232.931 60.595C232.341 60.235 231.876 59.73 231.536 59.08C231.196 58.43 231.026 57.69 231.026 56.86ZM237.986 56.875C237.986 56.255 237.861 55.715 237.611 55.255C237.361 54.795 237.021 54.445 236.591 54.205C236.171 53.955 235.706 53.83 235.196 53.83C234.686 53.83 234.221 53.95 233.801 54.19C233.381 54.43 233.046 54.78 232.796 55.24C232.546 55.7 232.421 56.24 232.421 56.86C232.421 57.49 232.546 58.04 232.796 58.51C233.046 58.97 233.381 59.325 233.801 59.575C234.221 59.815 234.686 59.935 235.196 59.935C235.706 59.935 236.171 59.815 236.591 59.575C237.021 59.325 237.361 58.97 237.611 58.51C237.861 58.04 237.986 57.495 237.986 56.875ZM243.038 49.9V61H241.673V49.9H243.038Z" fill="#6B6B6B"/>
</svg>
