<svg width="248" height="89" viewBox="0 0 248 89" fill="none" xmlns="http://www.w3.org/2000/svg">
<rect width="89" height="89" rx="14.6502" fill="#4CAF50"/>
<path d="M41.7225 68.0319V47.3423C38.9553 47.3423 36.2961 46.8126 33.745 45.7533C31.194 44.6939 28.9456 43.1914 26.9998 41.2457C25.0541 39.2999 23.5624 37.0515 22.5247 34.5005C21.4869 31.9494 20.9681 29.2902 20.9681 26.523V21.3344H26.1567C28.8807 21.3344 31.5183 21.864 34.0693 22.9234C36.6204 23.9827 38.8688 25.4852 40.8145 27.431C42.1549 28.7714 43.2683 30.2415 44.1547 31.8413C45.0411 33.4411 45.7221 35.149 46.1977 36.9651C46.4139 36.6624 46.6517 36.3705 46.9111 36.0895C47.1706 35.8084 47.4516 35.5166 47.7543 35.2139C49.7 33.2682 51.9484 31.7656 54.4995 30.7063C57.0506 29.647 59.7097 29.1173 62.477 29.1173H67.6656V34.3059C67.6656 37.0732 67.1359 39.7323 66.0766 42.2834C65.0173 44.8345 63.5147 47.0829 61.569 49.0286C59.6233 50.9743 57.3857 52.466 54.8562 53.5038C52.3268 54.5415 49.6784 55.0603 46.9111 55.0603V68.0319H41.7225ZM41.7225 42.0888C41.7225 40.0134 41.3226 38.0352 40.5227 36.1543C39.7228 34.2735 38.5877 32.598 37.1176 31.1279C35.6475 29.6578 33.972 28.5228 32.0912 27.7228C30.2103 26.9229 28.2321 26.523 26.1567 26.523C26.1567 28.5984 26.5458 30.5874 27.3241 32.4899C28.1024 34.3924 29.2266 36.0787 30.6967 37.5488C32.1668 39.0189 33.8531 40.1431 35.7556 40.9214C37.6581 41.6997 39.6471 42.0888 41.7225 42.0888ZM46.9111 49.8717C48.9866 49.8717 50.9648 49.4826 52.8456 48.7043C54.7265 47.926 56.402 46.8018 57.8721 45.3317C59.3422 43.8616 60.4772 42.1753 61.2771 40.2728C62.077 38.3703 62.477 36.3813 62.477 34.3059C60.4015 34.3059 58.4126 34.7058 56.5101 35.5058C54.6076 36.3057 52.9213 37.4407 51.4512 38.9108C49.9811 40.3809 48.8569 42.0564 48.0786 43.9373C47.3003 45.8181 46.9111 47.7963 46.9111 49.8717Z" fill="white"/>
<path d="M110.91 40.72C110.91 41.94 110.63 43.06 110.07 44.08C109.51 45.08 108.65 45.89 107.49 46.51C106.33 47.13 104.89 47.44 103.17 47.44H99.99V55H94.86V33.94H103.17C104.85 33.94 106.27 34.23 107.43 34.81C108.59 35.39 109.46 36.19 110.04 37.21C110.62 38.23 110.91 39.4 110.91 40.72ZM102.78 43.36C103.76 43.36 104.49 43.13 104.97 42.67C105.45 42.21 105.69 41.56 105.69 40.72C105.69 39.88 105.45 39.23 104.97 38.77C104.49 38.31 103.76 38.08 102.78 38.08H99.99V43.36H102.78ZM118.711 32.8V55H113.581V32.8H118.711ZM121.408 46.6C121.408 44.88 121.728 43.37 122.368 42.07C123.028 40.77 123.918 39.77 125.038 39.07C126.158 38.37 127.408 38.02 128.788 38.02C129.968 38.02 130.998 38.26 131.878 38.74C132.778 39.22 133.468 39.85 133.948 40.63V38.26H139.078V55H133.948V52.63C133.448 53.41 132.748 54.04 131.848 54.52C130.968 55 129.938 55.24 128.758 55.24C127.398 55.24 126.158 54.89 125.038 54.19C123.918 53.47 123.028 52.46 122.368 51.16C121.728 49.84 121.408 48.32 121.408 46.6ZM133.948 46.63C133.948 45.35 133.588 44.34 132.868 43.6C132.168 42.86 131.308 42.49 130.288 42.49C129.268 42.49 128.398 42.86 127.678 43.6C126.978 44.32 126.628 45.32 126.628 46.6C126.628 47.88 126.978 48.9 127.678 49.66C128.398 50.4 129.268 50.77 130.288 50.77C131.308 50.77 132.168 50.4 132.868 49.66C133.588 48.92 133.948 47.91 133.948 46.63ZM152.99 38.08C154.95 38.08 156.51 38.72 157.67 40C158.85 41.26 159.44 43 159.44 45.22V55H154.34V45.91C154.34 44.79 154.05 43.92 153.47 43.3C152.89 42.68 152.11 42.37 151.13 42.37C150.15 42.37 149.37 42.68 148.79 43.3C148.21 43.92 147.92 44.79 147.92 45.91V55H142.79V38.26H147.92V40.48C148.44 39.74 149.14 39.16 150.02 38.74C150.9 38.3 151.89 38.08 152.99 38.08ZM172.335 50.65V55H169.725C167.865 55 166.415 54.55 165.375 53.65C164.335 52.73 163.815 51.24 163.815 49.18V42.52H161.775V38.26H163.815V34.18H168.945V38.26H172.305V42.52H168.945V49.24C168.945 49.74 169.065 50.1 169.305 50.32C169.545 50.54 169.945 50.65 170.505 50.65H172.335ZM174.322 44.44C174.322 42.36 174.772 40.51 175.672 38.89C176.572 37.25 177.822 35.98 179.422 35.08C181.042 34.16 182.872 33.7 184.912 33.7C187.412 33.7 189.552 34.36 191.332 35.68C193.112 37 194.302 38.8 194.902 41.08H189.262C188.842 40.2 188.242 39.53 187.462 39.07C186.702 38.61 185.832 38.38 184.852 38.38C183.272 38.38 181.992 38.93 181.012 40.03C180.032 41.13 179.542 42.6 179.542 44.44C179.542 46.28 180.032 47.75 181.012 48.85C181.992 49.95 183.272 50.5 184.852 50.5C185.832 50.5 186.702 50.27 187.462 49.81C188.242 49.35 188.842 48.68 189.262 47.8H194.902C194.302 50.08 193.112 51.88 191.332 53.2C189.552 54.5 187.412 55.15 184.912 55.15C182.872 55.15 181.042 54.7 179.422 53.8C177.822 52.88 176.572 51.61 175.672 49.99C174.772 48.37 174.322 46.52 174.322 44.44ZM197.024 46.6C197.024 44.88 197.344 43.37 197.984 42.07C198.644 40.77 199.534 39.77 200.654 39.07C201.774 38.37 203.024 38.02 204.404 38.02C205.584 38.02 206.614 38.26 207.494 38.74C208.394 39.22 209.084 39.85 209.564 40.63V38.26H214.694V55H209.564V52.63C209.064 53.41 208.364 54.04 207.464 54.52C206.584 55 205.554 55.24 204.374 55.24C203.014 55.24 201.774 54.89 200.654 54.19C199.534 53.47 198.644 52.46 197.984 51.16C197.344 49.84 197.024 48.32 197.024 46.6ZM209.564 46.63C209.564 45.35 209.204 44.34 208.484 43.6C207.784 42.86 206.924 42.49 205.904 42.49C204.884 42.49 204.014 42.86 203.294 43.6C202.594 44.32 202.244 45.32 202.244 46.6C202.244 47.88 202.594 48.9 203.294 49.66C204.014 50.4 204.884 50.77 205.904 50.77C206.924 50.77 207.784 50.4 208.484 49.66C209.204 48.92 209.564 47.91 209.564 46.63ZM223.535 41.05C224.135 40.13 224.885 39.41 225.785 38.89C226.685 38.35 227.685 38.08 228.785 38.08V43.51H227.375C226.095 43.51 225.135 43.79 224.495 44.35C223.855 44.89 223.535 45.85 223.535 47.23V55H218.405V38.26H223.535V41.05ZM247.017 46.36C247.017 46.84 246.987 47.34 246.927 47.86H235.317C235.397 48.9 235.727 49.7 236.307 50.26C236.907 50.8 237.637 51.07 238.497 51.07C239.777 51.07 240.667 50.53 241.167 49.45H246.627C246.347 50.55 245.837 51.54 245.097 52.42C244.377 53.3 243.467 53.99 242.367 54.49C241.267 54.99 240.037 55.24 238.677 55.24C237.037 55.24 235.577 54.89 234.297 54.19C233.017 53.49 232.017 52.49 231.297 51.19C230.577 49.89 230.217 48.37 230.217 46.63C230.217 44.89 230.567 43.37 231.267 42.07C231.987 40.77 232.987 39.77 234.267 39.07C235.547 38.37 237.017 38.02 238.677 38.02C240.297 38.02 241.737 38.36 242.997 39.04C244.257 39.72 245.237 40.69 245.937 41.95C246.657 43.21 247.017 44.68 247.017 46.36ZM241.767 45.01C241.767 44.13 241.467 43.43 240.867 42.91C240.267 42.39 239.517 42.13 238.617 42.13C237.757 42.13 237.027 42.38 236.427 42.88C235.847 43.38 235.487 44.09 235.347 45.01H241.767Z" fill="#2E2E2E"/>
</svg>
