<svg width="89" height="89" viewBox="0 0 89 89" fill="none" xmlns="http://www.w3.org/2000/svg">
<rect width="89" height="89" rx="14.6502" fill="#4CAF50"/>
<path d="M42.5374 67.4805V46.7909C39.7702 46.7909 37.111 46.2612 34.5599 45.2018C32.0089 44.1425 29.7605 42.64 27.8147 40.6942C25.869 38.7485 24.3773 36.5001 23.3395 33.949C22.3018 31.398 21.783 28.7388 21.783 25.9715V20.7829H26.9716C29.6956 20.7829 32.3331 21.3126 34.8842 22.3719C37.4353 23.4313 39.6837 24.9338 41.6294 26.8796C42.9698 28.2199 44.0832 29.69 44.9696 31.2899C45.856 32.8897 46.537 34.5976 47.0126 36.4136C47.2288 36.111 47.4666 35.8191 47.726 35.538C47.9855 35.257 48.2665 34.9651 48.5692 34.6625C50.5149 32.7167 52.7633 31.2142 55.3144 30.1549C57.8654 29.0955 60.5246 28.5658 63.2919 28.5658H68.4805V33.7545C68.4805 36.5217 67.9508 39.1809 66.8915 41.732C65.8321 44.283 64.3296 46.5314 62.3839 48.4772C60.4381 50.4229 58.2005 51.9146 55.6711 52.9523C53.1416 53.9901 50.4933 54.5089 47.726 54.5089V67.4805H42.5374ZM42.5374 41.5374C42.5374 39.4619 42.1375 37.4838 41.3375 35.6029C40.5376 33.722 39.4026 32.0465 37.9325 30.5764C36.4624 29.1063 34.7869 27.9713 32.9061 27.1714C31.0252 26.3715 29.047 25.9715 26.9716 25.9715C26.9716 28.047 27.3607 30.036 28.139 31.9384C28.9173 33.8409 30.0415 35.5272 31.5116 36.9973C32.9817 38.4675 34.668 39.5917 36.5705 40.3699C38.473 41.1482 40.462 41.5374 42.5374 41.5374ZM47.726 49.3203C49.8015 49.3203 51.7796 48.9312 53.6605 48.1529C55.5414 47.3746 57.2169 46.2504 58.687 44.7803C60.1571 43.3102 61.2921 41.6239 62.092 39.7214C62.8919 37.8189 63.2919 35.8299 63.2919 33.7545C61.2164 33.7545 59.2275 34.1544 57.325 34.9543C55.4225 35.7542 53.7362 36.8893 52.2661 38.3594C50.796 39.8295 49.6718 41.505 48.8935 43.3858C48.1152 45.2667 47.726 47.2449 47.726 49.3203Z" fill="white"/>
</svg>
